<svg width="24" height="24" viewBox="0 0 24 24" fill="none" xmlns="http://www.w3.org/2000/svg">
<path d="M8.76789 2.19217C9.79839 2.05117 10.6644 2.68117 11.0744 3.50067L12.0829 5.51767C12.6424 6.63667 12.3209 7.94917 11.4729 8.77567C10.9719 9.26317 10.4684 9.82017 10.1764 10.3112C10.157 10.3462 10.151 10.387 10.1594 10.4262C10.4294 11.8897 11.4209 13.3352 12.3054 14.3717C12.3499 14.421 12.408 14.4562 12.4723 14.4728C12.5367 14.4895 12.6045 14.4868 12.6674 14.4652L14.6549 13.8437C15.1903 13.6764 15.7653 13.685 16.2954 13.8683C16.8256 14.0516 17.2831 14.3999 17.6009 14.8622L19.0394 16.9542C19.4294 17.5217 19.6269 18.2922 19.3279 19.0327C19.0609 19.6937 18.5444 20.6482 17.6049 21.2827C16.6299 21.9407 15.2944 22.1907 13.5469 21.5912C11.5944 20.9217 9.74989 19.2417 8.22039 17.0927C6.68189 14.9312 5.41539 12.2302 4.64739 9.41467C3.92189 6.75517 4.36039 4.96617 5.39089 3.81317C6.38539 2.70067 7.81039 2.32317 8.76789 2.19217ZM9.95639 4.05967C9.72789 3.60367 9.32039 3.37817 8.93789 3.43067C8.08739 3.54717 7.02239 3.86417 6.32289 4.64617C5.65989 5.38817 5.20089 6.69417 5.85289 9.08567C6.58539 11.7697 7.79139 14.3347 9.23889 16.3682C10.6954 18.4142 12.3504 19.8592 13.9524 20.4092C15.3799 20.8987 16.2974 20.6567 16.9054 20.2467C17.5484 19.8122 17.9439 19.1217 18.1689 18.5647C18.2719 18.3097 18.2274 17.9797 18.0094 17.6627L16.5709 15.5702C16.4044 15.3281 16.1648 15.1456 15.8871 15.0496C15.6095 14.9536 15.3083 14.9491 15.0279 15.0367L13.0404 15.6582C12.4464 15.8432 11.7774 15.6782 11.3549 15.1832C10.4344 14.1047 9.26139 12.4507 8.92989 10.6532C8.8664 10.3161 8.92753 9.9675 9.10189 9.67217C9.48089 9.03567 10.0809 8.38617 10.6004 7.88017C11.1079 7.38567 11.2519 6.65067 10.9649 6.07667L9.95639 4.06017V4.05967Z" fill="white"/>
</svg>
